<?xml version="1.0" encoding="UTF-8" standalone="no"?><!-- Generator: Gravit.io --><svg xmlns="http://www.w3.org/2000/svg" xmlns:xlink="http://www.w3.org/1999/xlink" style="isolation:isolate" viewBox="0 0 168 168" width="168pt" height="168pt"><defs><clipPath id="_clipPath_7S6OtUhunRiIMx5ESGFVdg3qOT2reqi9"><rect x="0" y="0" width="168" height="168"/></clipPath></defs><g clip-path="url(#_clipPath_7S6OtUhunRiIMx5ESGFVdg3qOT2reqi9)"><path d=" M 84 147 C 95.379 147 106.054 143.983 115.268 138.705 C 106.041 135.209 95.189 128.781 84 120.043 C 72.811 128.781 61.959 135.209 52.732 138.705 C 61.946 143.983 72.621 147 84 147 Z  M 41.483 130.49 C 40.101 129.225 38.775 127.9 37.51 126.517 C 38.009 123.342 39.373 119.051 41.914 113.766 C 44.98 107.388 49.453 100.197 55.154 92.684 C 58.206 96.166 61.464 99.647 64.908 103.092 C 68.353 106.536 71.835 109.794 75.316 112.846 C 67.803 118.547 60.612 123.02 54.234 126.086 C 48.95 128.627 44.658 129.991 41.483 130.49 Z  M 84 105.819 C 87.758 102.588 91.548 99.079 95.314 95.314 C 99.079 91.548 102.588 87.758 105.819 84 C 102.588 80.242 99.079 76.452 95.314 72.686 C 91.548 68.921 87.758 65.412 84 62.181 C 80.242 65.412 76.452 68.921 72.686 72.686 C 68.921 76.452 65.412 80.242 62.181 84 C 65.412 87.758 68.921 91.548 72.686 95.314 C 76.452 99.079 80.242 102.588 84 105.819 Z  M 92.684 112.846 C 96.166 109.794 99.647 106.536 103.092 103.092 C 106.536 99.647 109.794 96.166 112.846 92.684 C 118.547 100.197 123.02 107.388 126.086 113.766 C 128.627 119.051 129.991 123.342 130.49 126.517 C 129.225 127.9 127.9 129.225 126.517 130.49 C 123.342 129.991 119.051 128.627 113.766 126.086 C 107.388 123.02 100.197 118.547 92.684 112.846 Z  M 120.043 84 C 128.781 95.189 135.209 106.041 138.705 115.268 C 143.983 106.054 147 95.379 147 84 C 147 72.621 143.983 61.946 138.705 52.732 C 135.209 61.959 128.781 72.811 120.043 84 Z  M 126.517 37.51 C 127.9 38.775 129.225 40.101 130.49 41.483 C 129.991 44.658 128.627 48.95 126.086 54.234 C 123.02 60.612 118.547 67.803 112.846 75.316 C 109.794 71.835 106.536 68.353 103.092 64.908 C 99.647 61.464 96.166 58.206 92.684 55.154 C 100.197 49.453 107.388 44.98 113.766 41.914 C 119.051 39.373 123.342 38.009 126.517 37.51 Z  M 115.268 29.295 C 106.041 32.791 95.189 39.219 84 47.957 C 72.811 39.219 61.959 32.791 52.732 29.295 C 61.946 24.017 72.621 21 84 21 C 95.379 21 106.054 24.017 115.268 29.295 Z  M 75.316 55.154 C 67.803 49.453 60.612 44.98 54.234 41.914 C 48.95 39.373 44.658 38.009 41.483 37.51 C 40.101 38.775 38.775 40.101 37.51 41.483 C 38.009 44.658 39.373 48.95 41.914 54.234 C 44.98 60.612 49.453 67.803 55.154 75.316 C 58.206 71.835 61.464 68.353 64.908 64.908 C 68.353 61.464 71.835 58.206 75.316 55.154 Z  M 47.957 84 C 39.219 72.811 32.791 61.959 29.295 52.732 C 24.017 61.946 21 72.621 21 84 C 21 95.379 24.017 106.054 29.295 115.268 C 32.791 106.041 39.219 95.189 47.957 84 Z  M 84 168 C 130.392 168 168 130.392 168 84 C 168 37.608 130.392 0 84 0 C 37.608 0 0 37.608 0 84 C 0 130.392 37.608 168 84 168 Z " fill-rule="evenodd" fill="rgb(12,38,117)"/></g></svg>