<svg xmlns="http://www.w3.org/2000/svg" xmlns:xlink="http://www.w3.org/1999/xlink" xml:space="preserve" version="1.1" style="shape-rendering:geometricPrecision; text-rendering:geometricPrecision; image-rendering:optimizeQuality; fill-rule:evenodd; clip-rule:evenodd" viewBox="7179 7179 10642 10642">
 <defs>
  <style type="text/css">
   <![CDATA[
    .fil2 {fill:#997C43;fill-rule:nonzero}
    .fil3 {fill:url(#id0);fill-rule:nonzero}
    .fil1 {fill:url(#id1);fill-rule:nonzero}
    .fil0 {fill:url(#id2);fill-rule:nonzero}
   ]]>
  </style>
  <linearGradient id="id0" gradientUnits="userSpaceOnUse" x1="15049.4" y1="15593.5" x2="9277.2" y2="9312.16">
   <stop offset="0" style="stop-opacity:1; stop-color:#BA8500"/>
   <stop offset="0.501961" style="stop-opacity:1; stop-color:#FFFAD1"/>
   <stop offset="1" style="stop-opacity:1; stop-color:#C29431"/>
  </linearGradient>
  <linearGradient id="id1" gradientUnits="userSpaceOnUse" x1="10050.9" y1="15714.9" x2="14949.1" y2="9285.07">
   <stop offset="0" style="stop-opacity:1; stop-color:#BA8500"/>
   <stop offset="0.501961" style="stop-opacity:1; stop-color:#EDE28E"/>
   <stop offset="1" style="stop-opacity:1; stop-color:#C29431"/>
  </linearGradient>
  <linearGradient id="id2" gradientUnits="userSpaceOnUse" xlink:href="#id0" x1="16366.4" y1="16707.4" x2="8633.63" y2="8292.63">
  </linearGradient>
 </defs>
 <g id="Layer_x0020_1">
  <metadata id="CorelCorpID_0Corel-Layer"/>
  <g id="_2717798304480">
   <circle class="fil0" cx="12500" cy="12500" r="5321"/>
   <circle class="fil1" cx="12500" cy="12500" r="4806"/>
   <path class="fil2" d="M12500 7694c2654,0 4806,2152 4806,4806 0,624 -118,1219 -335,1766 175,-498 270,-1032 270,-1589 0,-2655 -2152,-4807 -4807,-4807 -2030,0 -3767,1260 -4471,3041 656,-1874 2440,-3217 4537,-3217z"/>
   <path class="fil2" d="M13012 16402c12,-1 24,-1 36,0 78,7 143,68 153,148 11,93 -55,178 -148,189 -81,10 -166,18 -255,24 -89,5 -174,8 -255,8 -1155,0 -2201,-469 -2958,-1226 -757,-757 -1226,-1803 -1226,-2958 0,-695 173,-1368 490,-1964 317,-596 778,-1116 1355,-1504 77,-53 183,-32 235,45 53,78 32,184 -45,236l-33 22c-514,355 -927,824 -1212,1360 -291,548 -450,1166 -450,1805 0,1061 430,2022 1126,2718 696,695 1657,1126 2718,1126 83,0 162,-3 235,-7 75,-5 153,-12 234,-22zm-557 -4199c67,0 131,16 186,45l3025 -1771 -2823 2015c11,36 17,75 17,116l0 5 201 147c8,5 15,10 22,16l0 0c44,37 72,93 72,154 0,112 -90,202 -201,202 -62,0 -118,-28 -154,-72l-119 -116c-65,43 -142,68 -226,68 -88,0 -169,-28 -235,-75l-157 112c-35,30 -81,49 -132,49 -111,0 -201,-90 -201,-202 0,-80 47,-150 116,-182l205 -120c2,-76 25,-146 64,-205l-1272 -1247 1483 1082c40,-14 84,-21 129,-21zm188 -2456c-94,-2 -167,-81 -164,-174 3,-93 81,-167 174,-164 279,10 555,56 819,137 266,81 520,197 756,344 79,49 104,154 54,234 -49,79 -154,103 -233,54 -213,-133 -440,-236 -675,-308 -236,-72 -482,-114 -731,-123zm-1664 -672c-85,38 -185,-1 -223,-86 -38,-85 0,-186 85,-224 269,-119 548,-210 832,-270 287,-61 578,-92 870,-92 529,0 1049,101 1533,291 484,191 933,472 1320,833 69,64 72,171 9,240 -64,68 -171,72 -240,8 -67,-62 -135,-121 -206,-179 -306,-246 -645,-444 -1007,-586 -444,-175 -922,-267 -1409,-267 -270,0 -538,28 -799,84 -166,35 -330,81 -490,138 -93,33 -184,69 -275,110zm4542 5029c43,-83 145,-116 228,-74 84,43 117,145 75,228 -314,617 -789,1120 -1358,1468 -568,349 -1231,543 -1923,543 -750,0 -1463,-228 -2059,-630 -595,-401 -1073,-977 -1355,-1673 -34,-87 8,-186 95,-221 87,-35 185,8 220,95 10,23 20,47 30,71 258,599 680,1096 1200,1447 540,364 1188,571 1869,571 629,0 1231,-176 1747,-492 495,-304 912,-737 1197,-1267 11,-22 23,-44 34,-66zm-739 232c28,-36 67,-57 109,-63 44,-7 91,4 129,34 73,57 86,164 29,237 -302,387 -684,692 -1112,901 -429,209 -905,322 -1394,322 -878,0 -1673,-356 -2249,-931 -264,-264 -481,-574 -640,-918 -187,-405 -291,-856 -291,-1331 0,-761 270,-1469 726,-2022 457,-555 1101,-955 1848,-1100 92,-17 181,43 198,135 14,70 -19,139 -76,175 -17,11 -37,19 -58,23 -668,130 -1243,487 -1650,982 -408,494 -648,1126 -648,1807 0,488 123,947 339,1348 132,244 298,466 492,660 514,514 1225,832 2009,832 437,0 863,-100 1245,-287 384,-187 725,-460 994,-804zm-5520 -1111c18,92 -43,181 -135,199 -92,17 -181,-43 -198,-135 -22,-114 -39,-231 -51,-350 -11,-120 -17,-238 -17,-352 0,-1017 412,-1937 1079,-2604 454,-454 1026,-790 1667,-958 299,-78 613,-120 936,-120 399,0 793,65 1168,191 315,105 616,253 893,440 52,35 104,72 155,111 75,56 89,162 33,237 -56,75 -163,90 -237,33l-52 -38c-276,-200 -580,-355 -899,-462 -339,-114 -697,-172 -1061,-172 -923,0 -1758,374 -2363,979 -605,604 -979,1440 -979,2363 0,111 5,218 15,320 9,99 23,198 42,298l4 20z"/>
   <path class="fil3" d="M13074 16268c13,-1 25,-1 37,0 78,7 143,67 152,148 12,93 -54,178 -148,189 -81,10 -166,18 -254,23 -90,6 -175,9 -255,9 -1156,0 -2202,-469 -2959,-1226 -757,-757 -1225,-1803 -1225,-2958 0,-695 173,-1368 490,-1964 316,-596 778,-1116 1354,-1505 78,-52 183,-31 236,46 52,78 32,183 -46,236l-32 22c-515,355 -927,824 -1212,1360 -292,548 -450,1166 -450,1805 0,1061 430,2022 1126,2718 695,695 1656,1126 2718,1126 83,0 161,-3 235,-7 74,-5 152,-12 233,-22zm-556 -4199c67,0 130,16 186,45l3024 -1771 -2822 2015c11,36 17,75 17,116l-1 5 202 147c7,5 14,10 21,16l1 0c43,37 72,92 72,154 0,112 -91,202 -202,202 -62,0 -117,-28 -154,-72l-119 -116c-64,43 -142,68 -225,68 -88,0 -170,-28 -236,-75l-156 111c-36,31 -82,50 -132,50 -112,0 -202,-91 -202,-202 0,-80 48,-150 116,-182l205 -120c3,-76 26,-146 64,-205l-1271 -1247 1482 1082c41,-14 84,-21 130,-21zm187 -2456c-93,-2 -166,-81 -164,-174 3,-94 82,-167 175,-164 279,10 554,56 819,137 266,81 520,197 755,344 80,49 104,154 55,233 -50,80 -154,104 -234,55 -212,-133 -439,-236 -674,-308 -237,-72 -483,-114 -732,-123zm-1663 -672c-85,38 -186,-1 -224,-86 -38,-85 1,-186 86,-224 269,-119 548,-210 832,-270 286,-61 578,-92 870,-92 528,0 1048,101 1532,291 485,191 933,472 1321,833 68,64 72,171 8,240 -63,68 -171,72 -239,8 -67,-62 -136,-121 -207,-179 -305,-246 -645,-444 -1006,-586 -444,-175 -922,-267 -1409,-267 -271,0 -539,28 -800,84 -166,35 -329,81 -489,138 -93,33 -185,69 -275,110zm4542 5029c42,-83 144,-117 228,-74 83,42 117,145 74,228 -314,617 -788,1119 -1357,1468 -569,349 -1232,543 -1923,543 -751,0 -1464,-228 -2059,-630 -596,-401 -1074,-977 -1355,-1673 -35,-87 7,-186 94,-221 87,-35 186,8 221,94 9,24 19,48 29,72 258,599 680,1096 1201,1447 540,364 1187,571 1869,571 629,0 1231,-176 1746,-492 496,-304 912,-737 1197,-1267 12,-22 23,-44 35,-66zm-740 232c28,-36 68,-57 110,-63 44,-7 90,4 128,34 74,57 87,164 29,237 -301,387 -683,692 -1111,901 -429,209 -905,322 -1394,322 -878,0 -1674,-356 -2249,-931 -264,-264 -482,-574 -640,-918 -187,-405 -292,-856 -292,-1331 0,-761 270,-1469 727,-2023 457,-554 1100,-954 1847,-1099 92,-17 181,43 199,135 13,70 -19,139 -76,175 -18,11 -37,19 -59,23 -667,130 -1242,487 -1650,982 -407,494 -648,1126 -648,1807 0,488 123,947 340,1348 131,244 298,466 492,660 514,514 1224,832 2009,832 437,0 862,-100 1245,-287 383,-187 725,-460 993,-804zm-5519 -1111c17,92 -43,181 -135,198 -92,18 -181,-42 -199,-134 -22,-114 -39,-231 -50,-350 -12,-120 -17,-238 -17,-352 0,-1017 412,-1938 1078,-2604 454,-454 1027,-790 1668,-958 298,-78 612,-120 936,-120 398,0 793,65 1168,191 315,105 615,253 892,440 53,35 105,72 155,111 75,56 90,162 34,237 -57,75 -163,90 -238,33l-51 -38c-277,-200 -580,-355 -900,-462 -338,-114 -696,-172 -1060,-172 -923,0 -1759,374 -2364,978 -604,605 -979,1441 -979,2364 0,111 5,218 15,320 10,99 24,198 43,298l4 20z"/>
  </g>
 </g>
</svg>